# xmcd
#
# Track frame offsets: 
#        150
#        18485
#        35015
#        50377
#        69610
#        84917
#        101182
#        117082
#        131265
#        145807
#        162687
#        184275
#        198705
#        213540
#        231485
#        244930
#        264583
#        278365
#        293970
#        309147
#        326207
#        341452
#
# Disc length: 4770 seconds
#
# Revision: 0
# Processed by: cddbd v1.5.2PL0 Copyright (c) Steve Scherf et al.
# Submitted via: ExactAudioCopy v0.99pb5
#
DISCID=5212a016
DTITLE=BlackHawk - Top Hits and More!
DYEAR=2014
DGENRE=Country
TTITLE0=That's Just About Right
TTITLE1=Every Once in a While
TTITLE2=Goodbye Says It All
TTITLE3=I'm Not Strong Enough to Say No
TTITLE4=Your Own Little Corner of My Heart
TTITLE5=Between Ragged and Wrong
TTITLE6=Hook, Line and Sinker
TTITLE7=A Kiss is Worth a Thousand Words
TTITLE8=Almost a Memory Now
TTITLE9=Down in Flames
TTITLE10=Ships of Heaven
TTITLE11=There You Have It
TTITLE12=Like There Ain't No Yesterday
TTITLE13=Hole in My Heart
TTITLE14=Big Guitar
TTITLE15=Postmarked Birmingham
TTITLE16=Love Like This
TTITLE17=Cast Iron Heart
TTITLE18=King of the World
TTITLE19=Bad Love Gone Good
TTITLE20=Any Man With a Heartbeat
TTITLE21=I Sure Can Smell the Rain
EXTD=
EXTT0=
EXTT1=
EXTT2=
EXTT3=
EXTT4=
EXTT5=
EXTT6=
EXTT7=
EXTT8=
EXTT9=
EXTT10=
EXTT11=
EXTT12=
EXTT13=
EXTT14=
EXTT15=
EXTT16=
EXTT17=
EXTT18=
EXTT19=
EXTT20=
EXTT21=
PLAYORDER=
